<svg xmlns="http://www.w3.org/2000/svg" viewBox="0 0 333.05 332.12"><g id="Calque_2" data-name="Calque 2"><g id="Calque_2-2" data-name="Calque 2"><path class="cls-1" d="M284.73,120.46c-14.27-35.21-38.25-59.32-73.26-73.68l-.07,0a43.79,43.79,0,0,0-6.14-2.43c-3.91-1.11-7.89-2.05-11.85-3s-7.5-1.27-11.17-1.71c-5.51-.65-11-.74-16.83-.95a10.8,10.8,0,0,0-1.39,0l-3.45.22c-2.14.15-5.88.35-8.25.79-84.21,10-129,95.69-104.93,162.27a1.06,1.06,0,0,0,.34-.15c.36-.35.71-.7,1-1.07q43.85-49.77,110.06-54c5.27-.34,5.8-.92,6.51-7-14.28-1.08-38.37-2.8-53.56-3.94-1.75,3.52-3.55,7.07-5.37,10.72l-10.67-5.38c2.48-5,4.74-9.8,7.27-14.46a5.52,5.52,0,0,0,0-5.89c-2.52-4.7-4.82-9.52-7.35-14.55l10.71-5.38c3.51,7.08,7,13.79,10.13,20.64a5.7,5.7,0,0,1,.39,2.69l10,.62q22.58,1.71,45.14,3.44c8,.6,9.8,3.44,6.9,11q-6.23,16.22-12.47,32.43c-.43,1.13-.78,2.29-1.17,3.43l.74.27q13.59-22,27.27-44.14l10.1,6.29-7,11.6c36.26,7.42,66,25.23,90.66,53.71,1.83-8.68,3.45-16.38,5.13-24.32l1.22-12.07c-1.11-9.26-1.35-17.88-3.1-26.26m-36-7.19c-4.08,1.1-8.24,1.92-12.37,2.83a9.87,9.87,0,0,1-1.87,0c-.81-3.56-1.62-7.14-2.48-10.94l3.77-1.48c0-.2,0-.4,0-.6a41,41,0,0,0-4.26-.43c-12.1,0-24.2-.14-36.29,0-4.13.07-6.68-1.5-8.78-5-7.78-12.9-15.78-25.67-24.28-38.25.35.87.67,1.75,1,2.61,3.53,8.24,7.09,16.46,10.58,24.72,2.44,5.75.42,9.22-5.71,9.92l-16.42,1.86c-.47-4-.88-7.61-1.35-11.69l9.83-1.46L155.35,80.88c-2.93-6.87-5.91-13.72-8.79-20.61-2.5-6,.05-9.76,6.57-9.73,13.23.06,10.81-1.48,17.88,9.94,9.64,15.58,19.31,31.13,28.78,46.8,1.51,2.5,3.14,3.27,5.94,3.21,8.6-.18,17.23.32,25.8-.18,8.22-.48,15.77,1.73,23.34,4.2a9.62,9.62,0,0,1-.54,18.51Z"/><path class="cls-1" d="M155.27,272c-3.2.63-5.27-1.7-6.27-4.75-1.76-5.33-3.57-10.63-5.3-16-1.43-4.41-.78-6.24,3.09-8.87,3.48-2.37,7-4.69,11.09-7.42-2.41-2.18-4.54-3.93-6.46-5.88-3.35-3.42-3.36-6.36-.07-9.76a133.8,133.8,0,0,1,10.39-10.24,13.06,13.06,0,0,1,6.91-2.76,142.1,142.1,0,0,1,15.72-.07,5,5,0,0,0,5.14-2.68c2.51-4.16,5.29-8.16,8.06-12.16,2.29-3.3,4.82-4,8.41-2.32a54.29,54.29,0,0,1,6,3,3.81,3.81,0,0,0,4.75-.28,115,115,0,0,1,10.91-7.22,21.38,21.38,0,0,1,7.62-2.28c3.17-.38,6.43-.09,10.57-.09-13.9-10-38.07-19.58-53.69-21.72-2.13-.3-3.14.47-4.16,2.14q-8.34,13.75-16.86,27.4c-7.3,11.7-4.54,10.07-18.54,10.12-5.79,0-8.31-3.76-6.3-9.23,1.72-4.67,3.6-9.29,5.38-13.94,2.27-5.9,4.5-11.81,6.79-17.81-17.66-1.79-61.89,13.32-71.59,24.34A84.08,84.08,0,0,0,95,189c8.17,4.19,13.5,10.64,16.75,19.16,1.73,4.53,1.78,6.11-1.74,9.64-6,6-12.26,11.76-17.9,18.08-4.26,4.77-8.87,7.43-15.32,6.34-2.63-.44-4.55.57-5.86,3.29,2.63,2.78,5.24,5.61,8,8.33a3.41,3.41,0,0,0,2.23.77c8.59-.09,17.19-.38,25.78-.3a8.11,8.11,0,0,1,4.89,2.23c5.78,5.51,11.36,11.23,17,16.88a6.39,6.39,0,0,1,1.62,7.51,30.15,30.15,0,0,0-.93,3.4,120,120,0,0,0,38,5.71,4.31,4.31,0,0,0,2.53-1.65c2.46-2.82,1-5.12-.61-7.93C166.18,274.83,162.76,270.56,155.27,272Z"/><path class="cls-1" d="M271.55,203.54c-8.65-9.28-8.66-9.26-21.42-9.26a8.37,8.37,0,0,1-1.12,0,30.92,30.92,0,0,0-26.42,8c-4.64,4.2-9.52,5.05-14.81,1.13a13.79,13.79,0,0,0-2.93-1.24c-2.07,3.07-4.38,5.89-6,9.06-2.8,5.42-6.78,7.85-13,7.06-3.56-.46-7.29.36-10.83-.19-5.57-.85-8.37,2.44-11.73,6.7,1.89,1.62,3.77,3.07,5.44,4.72,6,5.94,5.73,8.83-1.2,13.44-3.11,2.07-6.23,4.13-9.31,6.25-.69.48-1.83,1.33-1.72,1.76.66,2.77,1.26,5.68,2.65,8.1.53.94,3.08,1.14,4.65,1,4.53-.43,7.56,1.28,9.85,5.2,2.57,4.41,5.52,8.61,8.47,12.78,2.28,3.22,4,6.4,1.32,10.3,8.43.49,9.17-.12,11.14-7.54,1.18-4.41,1.88-9.27,4.27-13a255.66,255.66,0,0,1,16.79-22.46,9.5,9.5,0,0,1,6.29-3c5.52-.26,11.09.25,16.89.46a17.69,17.69,0,0,0,0-3.07c-.73-5,1.4-8.33,5.77-10.61a30.55,30.55,0,0,0,5.9-3.95c6.69-5.81,14.32-8.22,23.1-6.94,2.35.34,3.82-.4,5-2.72s.36-3.69-1.06-5.25C275.49,208.05,273.59,205.73,271.55,203.54Z"/><path class="cls-1" d="M77.44,230.14a6.57,6.57,0,0,0,4.34-1.3c5.6-5.32,11-10.83,16.41-16.37.6-.62,1.11-2.2.75-2.73-1.73-2.62-3.45-5.41-5.79-7.42-3.09-2.66-6.73-4.7-10.18-6.92s-10.73-1.66-13.46,1.19q-8,8.34-15.64,17.06a4.63,4.63,0,0,0-.57,4.14c2.94,5.89,6.21,11.61,9.87,18.32C66.84,229.85,72.09,230,77.44,230.14Z"/><path class="cls-1" d="M321.42,168.45q5.1-4.83,10-9.84c.7-.7,1.65-1.73,1.59-2.53-.41-5.17-1.06-10.32-1.6-15.21l-.37,0c-.15-2.33-1.1-3.31-3.28-4.16a30.27,30.27,0,0,1-13.23-9.92,1.47,1.47,0,0,0-.16-.42c-7.18-11.5-7.31-22.93.09-34.43a4.25,4.25,0,0,0-.12-3.58l-.37-.68a6.86,6.86,0,0,0-.58-1.05c-2-3.56-4.12-7-6.05-10.62-1-1.79-2.08-2.3-4.11-2.26-20.36.45-33.95-14.67-31.39-35A3.8,3.8,0,0,0,270,34.49c-3.7-2.53-7.37-5.13-10.89-7.91-1.83-1.45-3.2-1.4-5.28-.34a30.2,30.2,0,0,1-17,3.11,5.73,5.73,0,0,0-1.31-.35,34.42,34.42,0,0,1-8.57-2.55A29.3,29.3,0,0,1,211.73,8.29c-.61-2.07-1.43-3.41-2.73-4.18a4.68,4.68,0,0,0-1.87-1c-4.6-1.11-9.29-1.83-13.89-2.9-2-.47-3.11,0-4.42,1.59C175.9,17.12,156,17.53,142.42,2.86a11.22,11.22,0,0,0-1.5-2.32c-.19-.2-.82,0-1.38.16a4.65,4.65,0,0,0-2.16.12c-4.34,1.12-8.72,2.15-13.13,3-2.3.42-3.16,1.49-3.74,3.74a30,30,0,0,1-15.23,19.24c-7.92,3.71-17.54,3.78-26.83-.7a4.65,4.65,0,0,0-3.88.15l-.94.64a6.75,6.75,0,0,0-1.23.82C69,30,65.69,32.43,62.45,35a4.23,4.23,0,0,0-1.4,3.28C63.83,58.61,50.18,74.11,29.7,73.86a5.18,5.18,0,0,0-3.84,1.83c-3,4.72-5.71,9.65-8.61,14.67,12.51,19.27,7,37.67-13.95,47.4a3.53,3.53,0,0,0-1.79,2.33C.85,145,.27,150,0,155a5.15,5.15,0,0,0,1.78,3.87c16.8,11.63,18.94,32.23,4.88,47.21a4.71,4.71,0,0,0-1,3.77c1.33,4.8,2.9,9.54,4.63,14.2a4.27,4.27,0,0,0,2.72,2.32C33.36,230,43.84,248,37,267.55a4.62,4.62,0,0,0,.72,3.81c3.16,3.86,6.52,7.56,10,11.14a4.22,4.22,0,0,0,3.41.89c20.15-4.77,37.08,7.47,38.7,28A4.68,4.68,0,0,0,92,314.59c4.46,2.22,9,4.23,13.66,6.07a4.25,4.25,0,0,0,3.5-.57c16.6-12.6,36.82-8.34,46.67,9.81a4.59,4.59,0,0,0,3.27,2,144.9,144.9,0,0,0,14.59,0,5,5,0,0,0,3.54-2.23c9.44-17.77,30.49-22.17,46.46-9.7a4.56,4.56,0,0,0,3.82.56,143.63,143.63,0,0,0,13.3-5.93,5,5,0,0,0,2.37-3.47c1.31-19.9,18.83-32.8,38.05-27.76,1.93.5,3.14.38,4.47-1.24a123.13,123.13,0,0,1,8.52-9.45c2-2,2.41-3.68,1.37-6.48a29.67,29.67,0,0,1,23.75-39.7c2.09-.3,3-1.06,3.56-3,1.33-4.54,3-9,4.26-13.53a4.88,4.88,0,0,0-.32-2.85,5,5,0,0,0-1.24-1.93,36.19,36.19,0,0,1-5.11-6.85,28.77,28.77,0,0,1-3.28-11.26c-.14-1.69-.33-3.38-.51-5.22l-.22,0a28.11,28.11,0,0,1,3.89-12.53A8.15,8.15,0,0,0,321.42,168.45Zm-17.56,12.28h-.05A155.93,155.93,0,0,1,296,212.44a160.14,160.14,0,0,1-7.52,16.93A134.52,134.52,0,0,1,252.69,272c-29.37,23.34-63.07,33.11-100.4,29.26a137.19,137.19,0,0,1-122.22-121c-4.34-37.38,5.29-71.32,28.54-101s54.33-46.56,91.9-51.87a37.89,37.89,0,0,0,4.8-.81q4.56-.39,9.14-.46l25.6,2.1a149.66,149.66,0,0,1,19.7,4.92,20.88,20.88,0,0,0,3.57,1.66c38.17,14.17,64.86,39.73,80.47,76.05.16.46.33.93.52,1.42a149.73,149.73,0,0,1,9,33.05c.48,5.84,1,11.72,1.47,17.77A130.76,130.76,0,0,1,303.86,180.73Z"/><path class="cls-1" d="M220.2,258.77c-3,5.13-7.32,9.45-10.49,14.48-1.8,2.87-2.45,6.46-3.92,10.59a127.5,127.5,0,0,0,42.8-24.07c-6-2-11-4.15-16.31-5.34C227.69,253.41,223.24,253.54,220.2,258.77Z"/><path class="cls-1" d="M256.81,235.22c-5,2.89-7.08,6.39-5.94,11.92,0,.24.16.47.1.28l6.69,4.42L274,230.93C266.65,228.51,262,232.23,256.81,235.22Z"/><path class="cls-1" d="M108.57,270c-3.91-5.15-8.89-3.9-13.82-3.68-.15.32-.29.64-.43,1l22.42,12.75.77-1.09C114.5,276,111.09,273.36,108.57,270Z"/></g></g></svg>
