<svg width="1440" height="596" viewBox="0 0 1440 596" fill="none" xmlns="http://www.w3.org/2000/svg">
<g clip-path="url(#clip0)">
<path d="M-201.984 59.3661C-197.376 39.8223 -177.024 25.4518 -157.056 27.3679C-140.928 28.9007 -127.104 39.4391 -113.664 48.253C-100.032 57.2585 -83.712 65.1144 -68.16 60.899C-58.176 58.2165 -50.112 50.9355 -43.2 43.4628C-33.024 32.5412 -23.808 20.47 -16.128 7.63238C-11.904 0.542941 -7.87196 -6.92971 -1.72796 -12.4863C4.41604 -18.0429 13.44 -21.3002 21.12 -18.2345C28.992 -15.1688 33.024 -6.73813 38.976 -0.798322C48.576 8.78201 63.168 11.6561 76.416 9.16524C89.664 6.67436 101.376 -0.798288 111.552 -9.8038C128.448 -24.9407 141.696 -47.1671 136.896 -69.3934C132.864 -87.9793 116.736 -101.967 109.056 -119.786C101.184 -138.563 103.68 -161.173 115.584 -177.651C126.528 -192.98 144.576 -202.752 152.64 -219.805C157.632 -230.343 158.016 -242.606 157.248 -254.294C155.136 -293.382 140.352 -331.32 116.16 -361.785" stroke="#e9d9c6" stroke-miterlimit="10"/>
<path d="M-153.984 482.05C-152.256 464.231 -149.76 446.411 -142.656 430.125C-135.552 413.838 -123.264 399.085 -106.56 392.57C-94.08 387.78 -80.064 387.588 -66.816 388.738C-55.872 389.696 -44.736 391.612 -34.752 395.827C-28.8 398.318 -23.232 401.575 -18.048 405.408C-17.28 405.982 -16.512 406.557 -15.744 407.132C1.92005 421.119 9.79204 438.939 24.96 455.417C31.68 462.698 36.096 471.129 40.896 478.41C45.696 485.691 52.416 493.355 61.824 496.037C65.856 497.187 69.696 497.187 73.728 497.762C91.776 499.678 108.672 510.6 123.648 519.03C130.56 523.054 138.24 526.12 145.92 530.143C153.408 534.167 160.896 538.191 167.424 543.173C177.216 550.837 184.32 560.609 187.008 572.488C188.352 578.428 188.544 584.751 192 589.925C196.224 596.439 203.712 598.93 210.048 602.571C218.88 607.552 225.6 615.217 230.784 624.414C239.616 640.317 243.072 660.627 241.344 679.213C238.272 711.403 222.912 741.102 213.312 772.143C209.28 785.363 206.4 798.967 204.672 812.571C200.064 851.468 205.824 891.13 212.352 929.835" stroke="#e9d9c6" stroke-miterlimit="10"/>
<path d="M-147.264 339.112C-144.576 323.975 -139.392 309.413 -130.944 296.767C-122.496 284.121 -110.4 273.582 -95.9999 268.026C-82.3679 263.044 -67.1999 262.277 -52.7999 264.577C-40.8959 266.493 -29.3759 270.325 -19.1999 276.648C-13.2479 280.288 -7.87192 284.887 -1.72792 288.528C-0.767919 289.102 0.192084 289.677 0.960084 290.06C22.0801 301.748 44.1601 301.94 62.7841 317.46C76.2241 328.573 78.7201 347.542 81.9841 364.02C85.2481 380.499 93.6961 399.851 110.976 402.725C118.272 404.066 125.568 401.959 132.864 401.192C166.08 397.935 194.304 424.377 214.272 450.243C219.264 456.566 224.832 462.698 231.936 467.68C238.848 472.47 247.104 475.535 254.208 479.751C264.96 486.074 273.216 495.079 278.784 505.809C281.472 511.174 283.584 516.923 286.656 522.479C290.496 529.377 295.104 534.934 299.136 540.873C304.704 549.112 309.12 558.501 312.576 568.273C318.912 585.901 323.136 605.253 323.328 624.222C323.52 664.46 307.008 702.206 295.488 741.102C290.688 757.58 286.656 774.25 284.928 791.303C280.128 839.78 293.76 888.064 307.584 934.816" stroke="#e9d9c6" stroke-miterlimit="10"/>
<path d="M1163.52 -289.549C1148.16 -275.754 1136.06 -257.934 1127.42 -239.157C1125.7 -235.325 1123.97 -231.301 1122.43 -227.277C1116.48 -212.14 1112.26 -195.662 1112.45 -179.376C1112.45 -176.502 1112.64 -173.436 1113.02 -170.562C1114.18 -160.407 1117.44 -150.635 1122.24 -141.438C1122.62 -140.671 1123.2 -139.905 1123.58 -138.947C1132.99 -122.66 1147.01 -108.481 1156.42 -93.5359C1162.37 -84.3388 1165.63 -75.3333 1171.39 -68.2439C1181.18 -56.1727 1195.97 -48.5084 1212.48 -45.0595C1218.24 -43.9098 1224.38 -43.5266 1230.53 -43.9098C1241.28 -44.4847 1253.38 -46.9755 1263.55 -41.4189C1274.69 -35.2875 1278.53 -20.917 1277.18 -8.65421C1275.84 3.41701 1270.85 14.5302 1268.54 26.6014C1268.16 28.5175 1267.97 30.2419 1267.78 32.158C1266.62 42.6963 1267.97 54.0011 1273.34 63.0066C1276.03 67.4136 1279.49 71.2457 1283.71 74.1198C1298.88 84.275 1320.19 81.0177 1338.62 81.7841C1347.26 82.1673 1355.52 83.5085 1362.43 88.1071C1365.89 90.4064 1368.77 93.2805 1371.26 96.5378C1376.83 104.202 1379.33 114.166 1380.48 123.746C1381.82 134.093 1381.82 144.439 1384.32 154.02C1385.09 157.085 1386.05 159.96 1387.39 162.834C1397.95 187.168 1427.9 198.281 1457.28 206.137C1474.94 210.927 1491.07 216.675 1507.78 221.465C1520.83 225.106 1534.27 228.172 1547.9 231.812C1562.5 235.644 1577.66 240.243 1591.68 245.991C1607.42 252.506 1622.02 260.745 1631.23 274.732" stroke="#e9d9c6" stroke-miterlimit="10"/>
<path d="M1067.14 -337.834C1041.6 -319.248 1025.09 -290.124 1016.06 -259.85C1014.14 -253.527 1012.61 -247.204 1011.26 -240.881C1006.27 -216.547 1004.74 -191.447 1004.93 -166.346C1004.93 -161.94 1004.93 -157.341 1005.31 -152.934C1006.08 -137.222 1008.38 -121.702 1015.1 -107.715C1015.68 -106.374 1016.26 -105.224 1017.02 -103.883C1030.46 -78.7823 1056 -58.8552 1061.57 -32.0302C1065.02 -15.3605 1059.26 0.351265 1057.73 15.8714C1056 32.3496 1059.46 50.5522 1072.7 63.0066C1077.31 67.4136 1083.07 70.6709 1089.22 73.1617C1100.54 77.7603 1113.6 80.2512 1124.54 87.5322C1136.06 95.1965 1142.98 107.843 1146.82 120.489C1150.66 132.943 1151.81 145.781 1153.54 159.001C1153.73 161.109 1154.11 163.025 1154.3 165.133C1156.03 176.438 1158.53 188.317 1165.44 197.514C1168.9 202.113 1173.12 205.562 1178.11 208.244C1195.2 217.441 1218.24 214.567 1238.02 212.076C1247.23 210.927 1256.45 209.969 1264.9 211.693C1269.31 212.46 1273.34 213.993 1277.38 216.1C1286.59 221.082 1292.93 229.704 1298.69 238.518C1304.83 247.907 1310.59 257.679 1318.66 264.385C1321.34 266.493 1324.03 268.409 1326.91 269.942C1351.3 282.779 1385.66 272.049 1417.15 281.438C1438.85 287.953 1454.21 304.622 1471.1 318.035C1484.35 328.382 1499.33 337.196 1515.26 344.477C1532.35 352.141 1550.98 358.272 1569.41 362.296C1589.95 366.895 1611.26 369.385 1627.01 382.798" stroke="#e9d9c6" stroke-miterlimit="10"/>
<path d="M1254.14 868.137C1264.51 850.51 1266.82 827.134 1256.64 809.123C1253.18 803.183 1248.58 798.009 1243.39 793.602C1242.43 792.836 1241.47 791.878 1240.32 791.112C1225.34 779.424 1207.1 771.568 1188.48 766.394C1181.95 764.67 1175.42 763.137 1169.09 760.646C1151.04 753.748 1136.83 738.42 1131.84 725.582C1129.73 720.409 1128.77 715.81 1127.81 710.637C1127.42 708.338 1127.04 705.847 1126.46 703.356C1124.93 693.775 1123.58 682.662 1120.32 670.783C1116.29 656.221 1107.26 643 1099.39 629.587C1092.48 617.899 1091.9 600.08 1088.64 582.26C1085.57 565.016 1081.92 548.154 1082.69 532.443C1083.07 521.904 1084.61 513.091 1089.6 507.342C1094.21 505.043 1099.01 504.851 1104.19 505.043C1115.52 505.235 1128.58 503.51 1141.82 504.085C1171.2 505.426 1198.85 498.337 1224 491.056C1232.26 488.756 1240.9 486.457 1249.54 484.541C1272 479.176 1295.42 477.452 1320.96 485.116C1344 492.014 1364.93 506.193 1383.36 520.18C1391.23 526.12 1398.72 532.251 1406.4 537.999C1416.58 545.855 1427.33 552.561 1438.27 561.184C1452.86 572.489 1463.42 585.709 1478.78 596.248C1492.03 605.253 1506.43 611.385 1517.57 623.456C1518.91 624.989 1520.45 626.522 1521.6 628.246C1529.28 637.826 1535.04 648.748 1539.65 659.67C1542.72 667.142 1545.6 674.998 1550.21 681.896C1554.24 688.027 1559.23 692.817 1563.26 698.566C1567.1 704.314 1570.18 711.595 1568.83 718.876" stroke="#e9d9c6" stroke-miterlimit="10"/>
<path d="M1136.06 880.783C1145.09 855.683 1151.04 825.026 1134.72 803.566C1129.15 796.477 1121.86 791.112 1113.79 786.896C1112.26 786.13 1110.72 785.363 1109.18 784.597C1086.53 773.484 1061.57 766.969 1036.42 765.436C1027.58 764.862 1018.56 764.862 1010.11 762.371C984.768 754.898 971.328 723.283 980.544 701.631C984.192 693.009 990.528 686.111 996.288 678.83C998.976 675.573 1001.47 672.124 1003.78 668.483C1012.8 655.071 1019.9 639.359 1021.25 621.923C1022.78 600.271 1012.8 580.919 1005.5 560.992C996.288 535.508 999.168 506.959 993.6 479.176C987.84 450.818 978.816 424.377 975.36 395.827C973.44 378.966 969.216 362.296 972.864 346.584C974.4 339.878 978.048 334.13 982.656 328.765C992.064 317.652 1006.66 309.221 1022.59 311.712C1056.58 316.694 1089.6 327.04 1119.74 338.92C1130.3 342.944 1140.48 347.351 1150.46 351.566C1176.58 362.488 1201.15 377.241 1229.18 389.887C1256.06 401.959 1283.71 414.413 1311.36 424.377C1323.07 428.592 1334.98 432.424 1346.69 435.681C1362.24 440.088 1379.52 441.238 1394.3 449.86C1417.92 463.464 1427.52 485.308 1449.79 500.253C1468.42 512.707 1490.3 518.072 1504.13 538.191C1505.86 540.682 1507.39 543.173 1508.74 545.855C1516.99 561.375 1520.26 579.386 1522.56 596.248C1524.1 607.744 1525.44 620.199 1532.93 629.396C1539.46 637.443 1549.06 641.659 1557.12 647.982C1565.18 654.113 1572.1 664.843 1568.26 674.423" stroke="#e9d9c6" stroke-miterlimit="10"/>
<path d="M427.584 817.936C408.384 800.117 407.04 769.652 413.568 743.976C420.096 718.301 432.768 694.35 437.184 668.675C439.296 656.221 440.448 641.85 444.288 629.779C447.744 618.666 453.504 609.469 464.256 605.062C471.36 602.188 479.616 602.188 486.72 599.122C505.92 590.308 505.92 565.782 508.224 543.939C508.608 541.065 508.8 538.191 509.376 535.317C513.216 511.366 527.616 489.523 530.112 465.38C532.416 443.92 526.464 423.227 521.472 402.342C519.36 393.72 517.248 384.714 516.096 375.709C514.944 366.32 514.944 357.314 516.48 348.692C517.44 343.135 518.976 337.77 520.704 332.789C528 309.988 541.248 288.719 554.688 266.876C562.368 254.422 570.24 241.967 576.768 228.171C581.952 217.25 586.176 205.945 588.672 194.065C590.592 185.826 590.592 177.396 590.016 169.157C589.44 159.96 587.904 150.762 587.328 141.565C586.944 133.901 586.944 127.195 589.056 120.297C590.208 116.656 592.32 113.782 593.856 110.525C595.2 107.651 596.352 104.585 596.16 100.562C595.2 87.7239 589.824 75.2695 584.448 63.3899C575.424 43.2712 566.592 23.1525 557.76 3.03379C553.536 -6.73814 549.12 -16.5101 544.896 -26.282C538.176 -41.419 531.648 -56.5558 524.928 -71.6928C521.472 -79.5486 517.824 -87.9793 518.4 -96.41C518.784 -102.35 520.896 -107.715 523.584 -113.08C525.888 -117.87 528.384 -122.469 530.304 -127.45C530.496 -127.833 530.688 -128.408 530.688 -128.792C532.416 -133.582 533.376 -138.563 534.336 -143.354C536.064 -152.551 537.024 -161.748 541.44 -169.412C549.504 -183.591 567.168 -190.106 584.064 -191.064C600.768 -191.83 617.664 -189.148 634.56 -193.171C636.288 -193.555 638.208 -194.129 639.936 -194.704C643.968 -196.237 647.616 -198.153 650.496 -200.261C652.416 -201.602 654.144 -202.943 655.68 -204.476C658.752 -207.35 662.016 -210.608 665.088 -214.248C675.456 -226.511 683.52 -242.031 690.432 -259.467C700.8 -285.717 709.248 -315.225 712.704 -343.008" stroke="#e9d9c6" stroke-miterlimit="10"/>
<path d="M491.328 811.614C476.928 794.177 475.776 767.927 481.152 745.318C486.72 722.708 497.664 701.248 504.192 679.597C507.456 669.058 510.336 657.562 515.136 647.79C519.36 638.976 525.312 631.695 534.528 627.48C540.864 624.606 547.776 624.031 553.92 620.965C570.816 612.726 574.464 593.949 578.688 575.363C579.264 572.872 579.84 570.381 580.416 568.082C585.408 547.388 595.584 527.461 597.888 506.001C600.192 483.391 597.12 460.974 594.432 438.556C593.472 429.742 591.168 419.778 590.4 410.006C589.632 399.851 590.4 390.079 594.432 382.223C597.12 377.05 600.576 373.601 604.032 370.152C618.048 355.59 639.168 343.135 658.176 326.466C669.312 316.885 679.68 305.581 687.168 290.827C692.928 279.331 696.384 266.876 697.728 254.23C698.688 245.416 697.92 236.411 696.192 227.788C694.464 218.208 691.776 208.819 689.472 199.622C687.744 191.958 686.016 185.06 686.016 178.162C686.016 174.33 686.592 171.264 686.784 167.815C686.976 164.75 686.976 161.492 686.016 157.469C682.752 144.439 676.608 131.602 670.656 119.147C660.672 98.0707 651.072 76.6108 641.472 55.3425C636.864 44.9957 632.256 34.6489 627.456 24.3022C620.16 8.20722 613.056 -7.69614 605.76 -23.7911C601.92 -32.2218 598.272 -40.8441 597.12 -49.4664C596.352 -55.5978 596.736 -61.346 597.504 -67.0942C598.08 -72.2675 598.848 -77.4409 600.192 -82.9975C600.384 -83.3807 600.384 -83.9555 600.576 -84.3387C601.92 -89.5121 603.84 -94.6855 605.76 -99.4757C609.6 -109.056 613.44 -117.103 619.584 -123.235C630.912 -134.54 649.536 -137.605 667.584 -134.731C689.856 -131.091 711.744 -123.618 734.976 -131.857C737.28 -132.624 739.584 -133.773 741.696 -135.114C746.688 -138.372 750.144 -142.779 750.912 -147.186C751.488 -150.06 750.912 -152.167 750.72 -154.85C750.528 -159.64 751.296 -165.388 752.256 -171.328C754.944 -191.638 756.096 -214.631 760.512 -239.157C767.424 -276.712 782.592 -315.033 794.88 -351.247" stroke="#e9d9c6" stroke-miterlimit="10"/>
<path d="M597.696 801.075C590.976 784.405 590.4 765.245 594.24 747.425C598.08 729.606 606.144 712.553 616.32 697.608C621.504 690.135 627.264 683.237 633.984 677.297C639.552 672.316 645.696 668.1 652.608 664.46C657.408 661.969 662.208 659.861 667.008 657.179C679.872 650.089 690.048 640.509 697.152 627.863C698.112 626.138 699.072 624.414 699.84 622.498C706.944 607.361 710.016 590.308 711.552 573.447C713.856 548.538 715.392 523.629 716.928 498.912C717.504 490.098 715.392 478.41 715.2 467.105C715.008 455.609 716.928 444.879 725.184 438.172C730.368 433.957 737.28 433.191 743.808 432.616C768 430.7 803.136 434.149 831.936 425.718C848.832 420.928 863.424 411.922 872.448 395.061C879.168 382.606 881.28 368.428 880.512 354.249C879.936 344.477 877.632 334.705 874.56 325.699C870.912 315.544 866.304 305.772 861.12 296.384C857.088 288.911 852.864 281.63 848.832 274.349C846.72 270.517 844.8 266.685 842.688 262.852C840.768 259.403 839.04 255.763 836.928 252.122C829.824 238.902 822.336 225.297 815.424 211.693C803.712 188.892 792.96 165.516 782.016 142.332C776.832 131.027 771.456 119.722 766.272 108.609C758.208 91.1729 749.952 73.545 741.888 56.1088C737.664 46.9117 733.44 37.7146 729.6 28.7091C726.912 22.1945 724.416 15.8715 722.112 9.54845C720 3.80025 717.696 -2.33116 718.272 -8.65417C718.272 -9.22899 718.464 -9.80382 718.464 -10.187C719.424 -15.9352 722.496 -21.3002 726.144 -25.8988C733.824 -35.8623 742.08 -41.9937 750.912 -45.6342C768 -52.1489 787.776 -48.5084 807.744 -40.6525C839.04 -28.1981 869.76 -14.0191 903.36 -29.5393C906.624 -31.0721 909.696 -33.1798 912.192 -35.8623C918.528 -41.9937 921.984 -50.8076 919.296 -58.4719C917.568 -63.6453 913.536 -67.2858 910.272 -71.6927C904.32 -79.7402 901.248 -89.7037 898.368 -99.4757C888.192 -133.39 877.632 -168.262 878.016 -204.668C878.592 -261.192 905.664 -314.267 932.544 -364.084" stroke="#e9d9c6" stroke-miterlimit="10"/>
<path d="M680.64 789.195C678.144 774.633 675.648 759.688 679.488 745.509C684.288 727.306 698.112 713.894 710.784 701.248C725.952 686.303 734.4 672.89 742.272 652.388C751.68 627.096 754.368 600.271 758.784 574.021C762.816 549.879 765.888 523.054 787.008 507.534C808.896 491.63 842.688 492.78 868.224 489.714C882.24 487.99 902.592 486.84 910.464 501.786C918.336 516.922 927.36 536.083 932.736 555.435C937.152 571.53 939.264 587.817 935.808 601.996C931.392 620.773 924.096 637.251 915.072 654.113C902.208 678.447 887.808 703.164 884.736 730.755C880.128 771.568 885.12 807.781 897.024 846.869" stroke="#e9d9c6" stroke-miterlimit="10"/>
<path d="M772.224 34.8405C786.624 81.5925 825.024 117.231 843.648 162.259C848.832 174.905 852.48 187.934 856.704 200.963C861.696 216.292 867.456 231.62 873.984 246.374C876.48 252.122 879.744 258.254 885.888 259.978C892.224 261.703 898.752 257.487 902.4 252.122C906.048 246.757 907.776 240.243 910.656 234.495C919.296 216.867 939.456 205.562 959.04 207.478C974.784 209.011 989.952 216.675 1006.08 216.1C1016.06 215.717 1021.44 209.202 1018.56 199.239C1017.22 194.64 1014.34 190.617 1011.26 186.784C998.4 170.115 982.464 154.978 973.824 135.626C964.224 114.166 967.68 90.9812 967.68 68.18C970.368 57.45 973.056 45.9537 968.832 35.7985C963.456 22.9609 948.672 17.021 934.848 15.8714C921.024 14.9134 907.2 17.5959 893.376 16.063C866.88 13.3805 843.84 -3.86406 817.728 -8.46262C784.512 -14.4024 761.28 -0.989955 772.224 34.8405Z" stroke="#e9d9c6" stroke-miterlimit="10"/>
<path d="M831.36 50.3606C830.592 42.3131 832.512 36.5649 837.312 33.3076C842.304 29.8587 849.6 29.0923 857.856 30.8167C871.104 33.6908 882.816 42.5048 894.912 46.3369C901.632 48.4446 907.968 49.5942 914.304 52.0851C920.64 54.576 927.36 58.9829 930.624 65.8807C931.008 66.8388 931.392 67.7968 931.776 68.7548C933.12 73.545 933.12 78.3352 933.12 82.9337C935.424 94.8133 936.576 106.693 942.144 118.189C944.64 123.171 947.52 127.77 950.4 132.368C953.664 137.542 956.736 142.715 959.424 148.08C960.576 150.379 961.728 152.679 962.112 155.361C962.496 156.894 962.496 158.235 962.304 159.576C961.728 162.834 959.808 165.133 956.352 165.899C951.744 167.049 946.752 166.283 941.952 165.516C938.688 164.941 935.424 164.558 932.16 164.558C921.984 164.367 911.616 169.348 905.664 177.013C903.744 179.503 902.4 182.569 900.096 184.677C896.64 187.743 891.84 189.275 887.616 188.317C883.2 187.359 880.128 184.102 878.016 180.27C876.096 176.629 874.368 172.414 873.216 167.815C871.488 160.918 870.144 154.403 868.8 147.888C866.88 139.074 864.768 130.261 860.544 120.489C849.792 96.5378 833.472 74.1198 831.36 50.3606Z" stroke="#e9d9c6" stroke-miterlimit="10"/>
<path d="M257.856 -150.251C275.712 -171.711 295.68 -192.022 319.872 -206.201C340.032 -218.08 363.456 -225.361 386.496 -224.212C391.104 -224.02 395.712 -223.445 400.128 -222.487C427.392 -216.739 451.776 -196.045 458.304 -169.412C466.176 -136.839 449.088 -106.374 438.528 -75.3333C432.576 -58.2803 429.504 -39.8861 428.928 -21.6835C428.544 -8.4626 429.696 4.75826 432.192 17.5959C439.872 55.7256 465.6 86.191 468.864 126.428C470.784 149.613 466.368 204.221 457.728 263.044C451.584 304.623 443.712 348.117 433.92 384.139C422.016 427.251 408 459.249 393.216 460.974C377.856 462.698 367.488 446.603 360.576 433.382C351.552 416.329 344.832 397.36 335.04 379.541C331.968 373.984 328.704 368.619 325.056 363.446C307.008 338.537 280.32 320.718 253.632 305.197C236.544 295.234 218.496 287.186 199.68 282.013C194.304 280.48 188.736 279.139 183.168 278.181C169.152 275.69 153.792 274.732 143.424 265.343C135.744 258.445 133.248 247.907 128.832 238.902C119.616 219.549 101.952 204.221 82.56 198.281C72.192 195.024 61.824 194.257 51.84 191.383C34.752 186.593 10.944 173.947 1.42368e-05 159.576C-10.176 145.972 -1.91999 117.806 4.99201 102.669C6.33601 99.7951 7.68001 96.921 10.176 94.8133C16.512 89.64 26.112 91.9393 34.56 92.1309C53.184 92.5141 66.048 81.5925 81.216 73.1618C84.096 71.629 87.168 70.0961 90.24 68.5632C104.448 62.0486 119.424 56.8753 132.672 48.0614C155.52 32.9244 173.568 12.0393 188.736 -10.3787C196.416 -21.8751 203.328 -33.7547 209.664 -45.6343C213.504 -52.9153 216.768 -60.388 219.84 -68.0522C231.36 -96.7932 238.848 -127.259 257.856 -150.251Z" stroke="#e9d9c6" stroke-miterlimit="10"/>
<path d="M182.592 130.452C197.376 129.877 212.544 132.56 226.752 128.536C245.568 123.171 259.2 106.885 270.912 91.1728C277.056 83.1254 283.008 74.8863 286.464 65.4976C291.264 52.4683 290.688 38.0978 292.224 24.3022C293.76 10.5065 298.56 -4.24723 310.272 -11.7199C317.76 -16.51 327.36 -17.6597 335.616 -14.594C356.16 -7.31293 361.728 19.7036 357.504 41.1635C353.28 62.6234 342.912 83.1253 344.256 104.968C345.216 120.68 352.512 135.242 357.696 150.188C362.496 163.6 365.568 177.587 367.104 191.766C368.256 202.113 368.256 213.226 362.304 221.657C352.128 236.219 329.856 235.453 313.92 227.98C297.984 220.507 284.352 207.861 267.456 202.496C251.136 197.323 233.664 199.431 216.768 201.155C199.872 202.879 182.016 203.837 166.464 196.94C124.992 178.162 141.312 132.177 182.592 130.452Z" stroke="#e9d9c6" stroke-miterlimit="10"/>
<path d="M1550.78 562.142C1545.79 521.521 1523.33 483.391 1490.3 458.866C1479.74 451.01 1468.03 444.687 1457.86 436.448C1435.58 418.82 1420.03 392.953 1395.07 379.349C1352.83 356.165 1299.65 374.559 1252.8 363.446C1230.14 358.081 1209.79 345.818 1190.4 332.789C1182.14 327.232 1173.31 320.334 1172.74 310.562C1172.54 308.646 1172.93 306.73 1174.08 305.197C1176 303.09 1179.26 303.09 1182.14 303.664C1199.23 306.73 1214.02 316.502 1229.18 324.741C1253.57 337.962 1280.26 347.926 1307.9 349.075C1339.78 350.416 1373.76 340.645 1402.18 355.015C1433.86 371.11 1446.14 411.731 1476.29 430.508C1488.38 437.981 1502.59 441.621 1515.65 446.986C1571.71 469.596 1609.92 529.952 1606.85 590.116" stroke="#e9d9c6" stroke-miterlimit="10"/>
<path d="M1249.73 -292.998C1235.71 -276.329 1225.73 -248.162 1222.27 -226.894C1219.01 -206.775 1222.46 -184.549 1236.48 -169.604C1248.77 -156.383 1266.82 -150.826 1283.52 -144.503C1307.9 -135.115 1332.1 -122.469 1348.42 -101.967C1358.98 -88.5542 1365.7 -71.3096 1365.31 -54.065C1364.93 -38.9281 1345.92 -24.366 1356.67 -9.42066C1361.28 -3.09765 1368.77 0.351269 1376.45 2.07573C1383.94 3.99179 1391.81 4.37501 1399.3 6.48268C1447.49 19.1287 1422.91 66.4555 1446.34 96.1546C1454.59 106.693 1468.99 109.375 1482.24 111.1C1507.78 114.166 1533.5 115.698 1559.23 115.315" stroke="#e9d9c6" stroke-miterlimit="10"/>
<path d="M467.712 -27.2401C471.744 -5.2053 483.264 14.5302 493.248 34.6489C518.208 84.6582 533.568 143.673 514.944 196.365C513.792 199.431 512.64 202.688 513.024 205.945C513.6 209.202 516.48 212.46 519.744 211.885C521.472 211.502 522.816 210.352 523.968 209.202C533.952 198.664 536.832 183.336 536.448 168.965C536.064 154.595 532.992 140.224 532.8 125.854C532.608 98.4539 543.36 70.8625 536.832 44.2292C530.112 17.5959 507.072 -2.33119 499.008 -28.5813C495.936 -38.5448 494.592 -84.5304 480.96 -84.722C463.104 -84.9136 465.984 -36.8204 467.712 -27.2401Z" stroke="#e9d9c6" stroke-miterlimit="10"/>
<path d="M359.424 798.393C356.928 773.484 354.624 747.808 360.576 723.474C367.488 695.691 385.344 670.591 387.84 642.042C389.952 618.857 381.888 593.948 391.488 572.872C399.936 554.286 419.52 543.747 432.384 528.036C442.176 515.964 448.128 501.211 453.696 486.84C460.992 467.871 468.48 448.519 470.208 428.209C470.592 422.844 470.784 416.904 473.856 412.497C476.928 408.09 484.416 405.982 487.68 410.389C489.024 411.922 489.408 414.03 489.792 415.946C496.128 454.65 465.216 489.523 459.84 528.419C458.304 539.149 458.688 550.645 452.544 559.459C446.208 568.656 434.304 572.68 426.24 580.536C417.984 588.583 414.336 599.888 410.88 610.81C404.544 631.12 398.016 651.43 391.68 671.741C383.04 699.14 374.208 726.923 371.328 755.473C368.448 784.022 371.712 814.104 385.92 839.205" stroke="#e9d9c6" stroke-miterlimit="10"/>
<path d="M-66.432 72.3954C-55.488 72.587 -44.928 67.222 -36.864 59.7494C-28.8 52.2767 -23.04 42.6964 -17.664 33.116C-14.4 27.1762 -11.136 20.8532 -6.14403 16.0631C-1.15203 11.2729 5.75997 8.01559 12.48 9.54844C18.624 10.8897 23.04 15.6798 27.84 19.7036C32.64 23.7273 38.784 27.1763 44.736 25.2602C47.04 24.4938 49.152 22.7693 51.84 22.5777C57.792 22.1945 60.864 30.6252 57.984 35.7986C55.104 40.9719 48.96 43.2712 43.2 45.3789C19.776 53.618 -3.64803 61.6654 -27.072 69.9045C-34.176 72.3954 -41.28 74.8863 -47.424 78.91C-63.168 89.64 -69.888 109.184 -74.496 127.77" stroke="#e9d9c6" stroke-miterlimit="10"/>
<path d="M-1.15206 41.9299C6.91194 30.4336 20.3519 28.1343 29.9519 39.0558C19.7759 47.2949 -11.3281 49.0194 -16.8961 58.7913C-13.0561 52.2767 -5.56806 48.253 -1.15206 41.9299Z" stroke="#e9d9c6" stroke-miterlimit="10"/>
<path d="M142.656 316.885C151.68 318.993 161.088 316.502 170.496 316.119C198.528 314.969 223.872 332.98 242.304 354.057C260.736 375.134 275.136 399.851 295.488 419.012C304.512 427.442 316.032 435.298 328.32 433.957C327.936 421.503 318.912 410.773 308.736 403.3C298.56 396.019 286.848 391.037 276.864 383.181C262.464 371.876 253.056 355.59 240.384 342.177C222.912 323.592 199.104 310.946 173.952 306.922C164.736 305.389 155.52 305.006 146.304 302.898C140.544 301.557 134.976 299.449 129.6 297.341C125.184 305.581 134.784 314.778 142.656 316.885Z" stroke="#e9d9c6" stroke-miterlimit="10"/>
<path d="M-64.704 555.819C-64.128 541.065 -54.336 527.078 -40.704 521.329C-27.072 515.581 -10.176 518.647 0.768023 528.611C10.56 537.616 15.36 551.029 25.344 559.459C38.784 570.764 58.176 570.956 75.648 572.488C93.12 574.213 113.28 580.153 119.616 596.631C121.92 602.762 122.112 609.469 124.8 615.408C131.904 631.695 153.6 634.761 167.04 646.257C173.568 651.814 177.984 659.286 181.056 667.142C190.656 691.668 187.392 720.792 172.224 742.443C165.696 751.832 157.248 759.688 151.104 769.46C138.432 789.387 137.472 814.296 136.896 837.864" stroke="#e9d9c6" stroke-miterlimit="10"/>
<path d="M274.176 140.991C278.016 135.242 282.24 127.961 289.152 127.77C296.448 127.578 301.056 136.2 300.096 143.481C299.904 145.589 299.328 147.505 299.52 149.613C300.096 153.445 303.36 156.127 305.664 159.193C308.16 162.259 309.696 166.857 307.2 169.732C306.24 170.881 304.704 171.456 303.168 171.839C293.952 174.713 283.776 174.713 274.56 172.031C271.104 171.073 267.648 169.54 264.192 169.157C254.4 167.815 245.952 173.18 236.928 174.905C230.592 176.055 216.96 175.097 226.944 166.857C231.552 163.025 245.952 163.409 252.288 160.151C260.928 155.936 268.608 149.23 274.176 140.991Z" stroke="#e9d9c6" stroke-miterlimit="10"/>
<path d="M1353.02 822.727C1354.94 809.314 1348.99 795.71 1341.5 784.405C1329.98 766.969 1310.4 753.557 1293.89 741.102C1285.25 734.588 1276.22 728.265 1267.2 722.133C1253.76 712.936 1239.94 704.122 1226.88 694.542C1220.35 689.752 1214.02 684.195 1211.52 676.531C1205.18 657.37 1220.93 652.005 1235.14 651.239C1245.89 650.664 1256.64 647.598 1267.2 644.149C1291.39 636.294 1306.75 624.414 1325.95 611.002C1336.13 603.912 1347.26 599.697 1359.74 597.206C1363.01 596.631 1366.66 596.056 1370.11 595.673C1376.06 595.098 1383.74 595.29 1391.42 596.248C1408.51 598.356 1426.37 605.062 1433.47 616.175C1435.97 619.815 1445.95 637.06 1458.62 655.071C1472.06 674.232 1488 694.542 1502.59 700.099C1514.69 704.889 1516.42 706.23 1526.02 715.619" stroke="#e9d9c6" stroke-miterlimit="10"/>
</g>
<defs>
<clipPath id="clip0">
<rect width="1440" height="596" fill="white"/>
</clipPath>
</defs>
</svg>
